<svg width="24" height="21" viewBox="0 0 24 21" fill="none" xmlns="http://www.w3.org/2000/svg">
<path d="M23 3.75H7.875M5.125 3.75H1M23 17.5H7.875M5.125 17.5H1M16.125 10.625H1M23 10.625H18.875M6.5 1C6.86467 1 7.21441 1.14487 7.47227 1.40273C7.73013 1.66059 7.875 2.01033 7.875 2.375V5.125C7.875 5.48967 7.73013 5.83941 7.47227 6.09727C7.21441 6.35513 6.86467 6.5 6.5 6.5C6.13533 6.5 5.78559 6.35513 5.52773 6.09727C5.26987 5.83941 5.125 5.48967 5.125 5.125V2.375C5.125 2.01033 5.26987 1.66059 5.52773 1.40273C5.78559 1.14487 6.13533 1 6.5 1ZM6.5 14.75C6.86467 14.75 7.21441 14.8949 7.47227 15.1527C7.73013 15.4106 7.875 15.7603 7.875 16.125V18.875C7.875 19.2397 7.73013 19.5894 7.47227 19.8473C7.21441 20.1051 6.86467 20.25 6.5 20.25C6.13533 20.25 5.78559 20.1051 5.52773 19.8473C5.26987 19.5894 5.125 19.2397 5.125 18.875V16.125C5.125 15.7603 5.26987 15.4106 5.52773 15.1527C5.78559 14.8949 6.13533 14.75 6.5 14.75ZM17.5 7.875C17.8647 7.875 18.2144 8.01987 18.4723 8.27773C18.7301 8.53559 18.875 8.88533 18.875 9.25V12C18.875 12.3647 18.7301 12.7144 18.4723 12.9723C18.2144 13.2301 17.8647 13.375 17.5 13.375C17.1353 13.375 16.7856 13.2301 16.5277 12.9723C16.2699 12.7144 16.125 12.3647 16.125 12V9.25C16.125 8.88533 16.2699 8.53559 16.5277 8.27773C16.7856 8.01987 17.1353 7.875 17.5 7.875Z" stroke="black" stroke-linecap="round" stroke-linejoin="round"/>
</svg>
