<svg width="25" height="28" viewBox="0 0 25 28" fill="none" xmlns="http://www.w3.org/2000/svg">
<path d="M3.125 27.3438C2.26562 27.3438 1.53021 27.038 0.91875 26.4266C0.30625 25.8141 0 25.0781 0 24.2188V10.1562C0 9.66146 0.110937 9.19271 0.332812 8.75C0.553646 8.30729 0.859375 7.94271 1.25 7.65625L10.625 0.625C10.9115 0.416667 11.2109 0.260417 11.5234 0.15625C11.8359 0.0520832 12.1615 0 12.5 0C12.8385 0 13.1641 0.0520832 13.4766 0.15625C13.7891 0.260417 14.0885 0.416667 14.375 0.625L23.75 7.65625C24.1406 7.94271 24.4469 8.30729 24.6688 8.75C24.8896 9.19271 25 9.66146 25 10.1562V24.2188C25 25.0781 24.6943 25.8141 24.0828 26.4266C23.4703 27.038 22.7344 27.3438 21.875 27.3438H15.625V16.4062H9.375V27.3438H3.125Z" fill="black"/>
</svg>
