<svg width="25" height="25" viewBox="0 0 25 25" fill="none" xmlns="http://www.w3.org/2000/svg">
<path d="M20.625 8.75C23.0375 8.75 25 6.7875 25 4.375C25 1.9625 23.0375 0 20.625 0C18.2125 0 16.25 1.9625 16.25 4.375C16.25 6.7875 18.2125 8.75 20.625 8.75ZM20.625 11.25C21.25 11.25 21.875 11.1625 22.5 10.9875V18.75C22.5 22.2 19.7 25 16.25 25H6.25C2.8 25 0 22.2 0 18.75V8.75C0 5.3 2.8 2.5 6.25 2.5H14.0125C13.7218 3.52251 13.6724 4.59851 13.868 5.64337C14.0637 6.68822 14.4991 7.67344 15.14 8.52152C15.7809 9.3696 16.6098 10.0574 17.5616 10.5309C18.5134 11.0043 19.562 11.2505 20.625 11.25Z" fill="black"/>
</svg>
