<svg width="25" height="24" viewBox="0 0 25 24" fill="none" xmlns="http://www.w3.org/2000/svg">
<path d="M24.8666 23.3389C24.7852 23.4848 24.666 23.6061 24.5215 23.6899C24.3769 23.7737 24.2124 23.8169 24.0454 23.815H0.954634C0.787569 23.8169 0.623091 23.7737 0.478547 23.6899C0.334003 23.6061 0.214751 23.4848 0.133365 23.3389C0.0461341 23.1954 0 23.0307 0 22.8628C0 22.6949 0.0461341 22.5302 0.133365 22.3867C1.91008 19.326 4.75401 17.0289 8.1199 15.9356C6.50655 14.9762 5.2528 13.5137 4.55127 11.7726C3.84974 10.0316 3.73922 8.10841 4.2367 6.29848C4.73419 4.48856 5.81214 2.89203 7.30498 1.75415C8.79781 0.616275 10.6229 0 12.5 0C14.377 0 16.2022 0.616275 17.695 1.75415C19.1879 2.89203 20.2658 4.48856 20.7633 6.29848C21.2608 8.10841 21.1503 10.0316 20.4487 11.7726C19.7472 13.5137 18.4934 14.9762 16.8801 15.9356C20.246 17.0289 23.0899 19.326 24.8666 22.3867C24.9539 22.5302 25 22.6949 25 22.8628C25 23.0307 24.9539 23.1954 24.8666 23.3389Z" fill="black"/>
</svg>
